<svg width="101" height="19" viewBox="0 0 101 19" fill="none" xmlns="http://www.w3.org/2000/svg">
<path d="M9.816 18H5.928C5.624 18 5.4 17.936 5.256 17.808C5.128 17.664 5.064 17.44 5.064 17.136V5.352H1.536C1.232 5.352 1.008 5.288 0.864 5.16C0.736 5.016 0.672 4.792 0.672 4.488V1.584C0.672 1.28 0.736 1.064 0.864 0.935999C1.008 0.791999 1.232 0.719999 1.536 0.719999H14.208C14.512 0.719999 14.728 0.791999 14.856 0.935999C15 1.064 15.072 1.28 15.072 1.584V4.488C15.072 4.792 15 5.016 14.856 5.16C14.728 5.288 14.512 5.352 14.208 5.352H10.68V17.136C10.68 17.44 10.608 17.664 10.464 17.808C10.336 17.936 10.12 18 9.816 18ZM7.752 15.84H7.992V3.12H12.912V2.88H2.832V3.12H7.752V15.84ZM31.9288 13.464C31.9288 14.2 31.8168 14.872 31.5928 15.48C31.3848 16.072 31.0008 16.584 30.4408 17.016C29.8968 17.432 29.1368 17.76 28.1608 18C27.2008 18.24 25.9768 18.36 24.4888 18.36C23.0008 18.36 21.7688 18.24 20.7928 18C19.8168 17.76 19.0488 17.432 18.4888 17.016C17.9448 16.584 17.5608 16.072 17.3368 15.48C17.1288 14.872 17.0248 14.2 17.0248 13.464V5.28C17.0248 4.544 17.1288 3.88 17.3368 3.288C17.5608 2.68 17.9448 2.16 18.4888 1.728C19.0488 1.296 19.8168 0.959999 20.7928 0.719999C21.7688 0.48 23.0008 0.36 24.4888 0.36C25.9768 0.36 27.2008 0.48 28.1608 0.719999C29.1368 0.959999 29.8968 1.296 30.4408 1.728C31.0008 2.16 31.3848 2.68 31.5928 3.288C31.8168 3.88 31.9288 4.544 31.9288 5.28V13.464ZM29.3128 12.912V5.832C29.3128 4.872 28.9688 4.096 28.2808 3.504C27.5928 2.896 26.3128 2.592 24.4408 2.592C22.5688 2.592 21.2968 2.896 20.6248 3.504C19.9528 4.096 19.6168 4.872 19.6168 5.832V12.912C19.6168 13.872 19.9528 14.656 20.6248 15.264C21.2968 15.856 22.5688 16.152 24.4408 16.152C26.3128 16.152 27.5928 15.856 28.2808 15.264C28.9688 14.656 29.3128 13.872 29.3128 12.912ZM19.8568 12.912V5.832C19.8568 4.936 20.1768 4.216 20.8168 3.672C21.4568 3.112 22.6648 2.832 24.4408 2.832C26.2168 2.832 27.4328 3.112 28.0888 3.672C28.7448 4.216 29.0728 4.936 29.0728 5.832V12.912C29.0728 13.808 28.7448 14.536 28.0888 15.096C27.4328 15.64 26.2168 15.912 24.4408 15.912C22.6648 15.912 21.4568 15.64 20.8168 15.096C20.1768 14.536 19.8568 13.808 19.8568 12.912ZM22.4728 12.6C22.4728 12.92 22.5928 13.192 22.8328 13.416C23.0728 13.624 23.6248 13.728 24.4888 13.728C25.3528 13.728 25.9048 13.624 26.1448 13.416C26.3848 13.192 26.5048 12.92 26.5048 12.6V6.144C26.5048 5.84 26.3848 5.584 26.1448 5.376C25.9048 5.152 25.3528 5.04 24.4888 5.04C23.6248 5.04 23.0728 5.152 22.8328 5.376C22.5928 5.584 22.4728 5.84 22.4728 6.144V12.6ZM37.8401 15.84V9.504H44.2961C45.1761 9.504 45.8401 9.664 46.2881 9.984C46.7361 10.304 46.9601 10.848 46.9601 11.616V15.84H47.2001V11.616C47.2001 10.784 46.9601 10.184 46.4801 9.816C46.0001 9.448 45.2721 9.264 44.2961 9.264H43.3121L46.0721 2.88H45.8081L43.0481 9.264H37.8401V2.88H37.6001V15.84H37.8401ZM39.5681 18H35.8481C35.5441 18 35.3201 17.936 35.1761 17.808C35.0481 17.664 34.9841 17.44 34.9841 17.136V1.584C34.9841 1.28 35.0481 1.064 35.1761 0.935999C35.3201 0.791999 35.5441 0.719999 35.8481 0.719999H39.5681C39.8721 0.719999 40.0881 0.791999 40.2161 0.935999C40.3601 1.064 40.4321 1.28 40.4321 1.584V7.104H41.3921L43.8641 1.512C43.9761 1.224 44.1281 1.024 44.3201 0.912C44.5121 0.783999 44.7601 0.719999 45.0641 0.719999H48.7601C49.0321 0.719999 49.2161 0.791999 49.3121 0.935999C49.4081 1.064 49.4001 1.256 49.2881 1.512L46.8401 7.104C47.7361 7.152 48.4481 7.472 48.9761 8.064C49.5201 8.64 49.7921 9.408 49.7921 10.368V17.136C49.7921 17.44 49.7201 17.664 49.5761 17.808C49.4481 17.936 49.2321 18 48.9281 18H45.2321C44.9281 18 44.7041 17.936 44.5601 17.808C44.4321 17.664 44.3681 17.44 44.3681 17.136V12.456C44.3681 12.2 44.3041 12 44.1761 11.856C44.0481 11.712 43.8561 11.64 43.6001 11.64H40.4321V17.136C40.4321 17.44 40.3601 17.664 40.2161 17.808C40.0881 17.936 39.8721 18 39.5681 18ZM60.441 18H56.553C56.249 18 56.025 17.936 55.881 17.808C55.753 17.664 55.689 17.44 55.689 17.136V5.352H52.161C51.857 5.352 51.633 5.288 51.489 5.16C51.361 5.016 51.297 4.792 51.297 4.488V1.584C51.297 1.28 51.361 1.064 51.489 0.935999C51.633 0.791999 51.857 0.719999 52.161 0.719999H64.833C65.137 0.719999 65.353 0.791999 65.481 0.935999C65.625 1.064 65.697 1.28 65.697 1.584V4.488C65.697 4.792 65.625 5.016 65.481 5.16C65.353 5.288 65.137 5.352 64.833 5.352H61.305V17.136C61.305 17.44 61.233 17.664 61.089 17.808C60.961 17.936 60.745 18 60.441 18ZM58.377 15.84H58.617V3.12H63.537V2.88H53.457V3.12H58.377V15.84ZM82.5538 13.464C82.5538 14.2 82.4418 14.872 82.2178 15.48C82.0098 16.072 81.6258 16.584 81.0658 17.016C80.5218 17.432 79.7618 17.76 78.7858 18C77.8258 18.24 76.6018 18.36 75.1138 18.36C73.6258 18.36 72.3938 18.24 71.4178 18C70.4418 17.76 69.6738 17.432 69.1138 17.016C68.5698 16.584 68.1858 16.072 67.9618 15.48C67.7538 14.872 67.6498 14.2 67.6498 13.464V5.28C67.6498 4.544 67.7538 3.88 67.9618 3.288C68.1858 2.68 68.5698 2.16 69.1138 1.728C69.6738 1.296 70.4418 0.959999 71.4178 0.719999C72.3938 0.48 73.6258 0.36 75.1138 0.36C76.6018 0.36 77.8258 0.48 78.7858 0.719999C79.7618 0.959999 80.5218 1.296 81.0658 1.728C81.6258 2.16 82.0098 2.68 82.2178 3.288C82.4418 3.88 82.5538 4.544 82.5538 5.28V13.464ZM79.9378 12.912V5.832C79.9378 4.872 79.5938 4.096 78.9058 3.504C78.2178 2.896 76.9378 2.592 75.0658 2.592C73.1938 2.592 71.9218 2.896 71.2498 3.504C70.5778 4.096 70.2418 4.872 70.2418 5.832V12.912C70.2418 13.872 70.5778 14.656 71.2498 15.264C71.9218 15.856 73.1938 16.152 75.0658 16.152C76.9378 16.152 78.2178 15.856 78.9058 15.264C79.5938 14.656 79.9378 13.872 79.9378 12.912ZM70.4818 12.912V5.832C70.4818 4.936 70.8018 4.216 71.4418 3.672C72.0818 3.112 73.2898 2.832 75.0658 2.832C76.8418 2.832 78.0578 3.112 78.7138 3.672C79.3698 4.216 79.6978 4.936 79.6978 5.832V12.912C79.6978 13.808 79.3698 14.536 78.7138 15.096C78.0578 15.64 76.8418 15.912 75.0658 15.912C73.2898 15.912 72.0818 15.64 71.4418 15.096C70.8018 14.536 70.4818 13.808 70.4818 12.912ZM73.0978 12.6C73.0978 12.92 73.2178 13.192 73.4578 13.416C73.6978 13.624 74.2498 13.728 75.1138 13.728C75.9778 13.728 76.5298 13.624 76.7698 13.416C77.0098 13.192 77.1298 12.92 77.1298 12.6V6.144C77.1298 5.84 77.0098 5.584 76.7698 5.376C76.5298 5.152 75.9778 5.04 75.1138 5.04C74.2498 5.04 73.6978 5.152 73.4578 5.376C73.2178 5.584 73.0978 5.84 73.0978 6.144V12.6ZM88.4651 15.84V9.504H94.9211C95.8011 9.504 96.4651 9.664 96.9131 9.984C97.3611 10.304 97.5851 10.848 97.5851 11.616V15.84H97.8251V11.616C97.8251 10.784 97.5851 10.184 97.1051 9.816C96.6251 9.448 95.8971 9.264 94.9211 9.264H93.9371L96.6971 2.88H96.4331L93.6731 9.264H88.4651V2.88H88.2251V15.84H88.4651ZM90.1931 18H86.4731C86.1691 18 85.9451 17.936 85.8011 17.808C85.6731 17.664 85.6091 17.44 85.6091 17.136V1.584C85.6091 1.28 85.6731 1.064 85.8011 0.935999C85.9451 0.791999 86.1691 0.719999 86.4731 0.719999H90.1931C90.4971 0.719999 90.7131 0.791999 90.8411 0.935999C90.9851 1.064 91.0571 1.28 91.0571 1.584V7.104H92.0171L94.4891 1.512C94.6011 1.224 94.7531 1.024 94.9451 0.912C95.1371 0.783999 95.3851 0.719999 95.6891 0.719999H99.3851C99.6571 0.719999 99.8411 0.791999 99.9371 0.935999C100.033 1.064 100.025 1.256 99.9131 1.512L97.4651 7.104C98.3611 7.152 99.0731 7.472 99.6011 8.064C100.145 8.64 100.417 9.408 100.417 10.368V17.136C100.417 17.44 100.345 17.664 100.201 17.808C100.073 17.936 99.8571 18 99.5531 18H95.8571C95.5531 18 95.3291 17.936 95.1851 17.808C95.0571 17.664 94.9931 17.44 94.9931 17.136V12.456C94.9931 12.2 94.9291 12 94.8011 11.856C94.6731 11.712 94.4811 11.64 94.2251 11.64H91.0571V17.136C91.0571 17.44 90.9851 17.664 90.8411 17.808C90.7131 17.936 90.4971 18 90.1931 18Z" fill="white"/>
</svg>
