<svg width="95" height="81" viewBox="0 0 95 81" fill="none" xmlns="http://www.w3.org/2000/svg">
<rect y="33" width="95" height="48" rx="19.5" fill="#D84242"/>
<path d="M21.36 30H14.88C14.3733 30 14 29.8933 13.76 29.68C13.5467 29.44 13.44 29.0667 13.44 28.56V8.92H7.56C7.05333 8.92 6.68 8.81333 6.44 8.6C6.22667 8.36 6.12 7.98667 6.12 7.48V2.64C6.12 2.13333 6.22667 1.77333 6.44 1.56C6.68 1.32 7.05333 1.2 7.56 1.2H28.68C29.1867 1.2 29.5467 1.32 29.76 1.56C30 1.77333 30.12 2.13333 30.12 2.64V7.48C30.12 7.98667 30 8.36 29.76 8.6C29.5467 8.81333 29.1867 8.92 28.68 8.92H22.8V28.56C22.8 29.0667 22.68 29.44 22.44 29.68C22.2267 29.8933 21.8667 30 21.36 30ZM17.92 26.4H18.32V5.2H26.52V4.8H9.72V5.2H17.92V26.4ZM58.2147 22.44C58.2147 23.6667 58.028 24.7867 57.6547 25.8C57.308 26.7867 56.668 27.64 55.7347 28.36C54.828 29.0533 53.5614 29.6 51.9347 30C50.3347 30.4 48.2947 30.6 45.8147 30.6C43.3347 30.6 41.2814 30.4 39.6547 30C38.028 29.6 36.748 29.0533 35.8147 28.36C34.908 27.64 34.268 26.7867 33.8947 25.8C33.548 24.7867 33.3747 23.6667 33.3747 22.44V8.8C33.3747 7.57333 33.548 6.46667 33.8947 5.48C34.268 4.46667 34.908 3.6 35.8147 2.88C36.748 2.16 38.028 1.6 39.6547 1.2C41.2814 0.799999 43.3347 0.599999 45.8147 0.599999C48.2947 0.599999 50.3347 0.799999 51.9347 1.2C53.5614 1.6 54.828 2.16 55.7347 2.88C56.668 3.6 57.308 4.46667 57.6547 5.48C58.028 6.46667 58.2147 7.57333 58.2147 8.8V22.44ZM53.8547 21.52V9.72C53.8547 8.12 53.2814 6.82667 52.1347 5.84C50.988 4.82667 48.8547 4.32 45.7347 4.32C42.6147 4.32 40.4947 4.82667 39.3747 5.84C38.2547 6.82667 37.6947 8.12 37.6947 9.72V21.52C37.6947 23.12 38.2547 24.4267 39.3747 25.44C40.4947 26.4267 42.6147 26.92 45.7347 26.92C48.8547 26.92 50.988 26.4267 52.1347 25.44C53.2814 24.4267 53.8547 23.12 53.8547 21.52ZM38.0947 21.52V9.72C38.0947 8.22667 38.628 7.02667 39.6947 6.12C40.7614 5.18667 42.7747 4.72 45.7347 4.72C48.6947 4.72 50.7214 5.18667 51.8147 6.12C52.908 7.02667 53.4547 8.22667 53.4547 9.72V21.52C53.4547 23.0133 52.908 24.2267 51.8147 25.16C50.7214 26.0667 48.6947 26.52 45.7347 26.52C42.7747 26.52 40.7614 26.0667 39.6947 25.16C38.628 24.2267 38.0947 23.0133 38.0947 21.52ZM42.4547 21C42.4547 21.5333 42.6547 21.9867 43.0547 22.36C43.4547 22.7067 44.3747 22.88 45.8147 22.88C47.2547 22.88 48.1747 22.7067 48.5747 22.36C48.9747 21.9867 49.1747 21.5333 49.1747 21V10.24C49.1747 9.73333 48.9747 9.30667 48.5747 8.96C48.1747 8.58667 47.2547 8.4 45.8147 8.4C44.3747 8.4 43.4547 8.58667 43.0547 8.96C42.6547 9.30667 42.4547 9.73333 42.4547 10.24V21ZM68.0669 26.4V15.84H78.8269C80.2935 15.84 81.4002 16.1067 82.1469 16.64C82.8935 17.1733 83.2669 18.08 83.2669 19.36V26.4H83.6669V19.36C83.6669 17.9733 83.2669 16.9733 82.4669 16.36C81.6669 15.7467 80.4535 15.44 78.8269 15.44H77.1869L81.7869 4.8H81.3469L76.7469 15.44H68.0669V4.8H67.6669V26.4H68.0669ZM70.9469 30H64.7469C64.2402 30 63.8669 29.8933 63.6269 29.68C63.4135 29.44 63.3069 29.0667 63.3069 28.56V2.64C63.3069 2.13333 63.4135 1.77333 63.6269 1.56C63.8669 1.32 64.2402 1.2 64.7469 1.2H70.9469C71.4535 1.2 71.8135 1.32 72.0269 1.56C72.2669 1.77333 72.3869 2.13333 72.3869 2.64V11.84H73.9869L78.1069 2.52C78.2935 2.04 78.5469 1.70667 78.8669 1.52C79.1869 1.30667 79.6002 1.2 80.1069 1.2H86.2669C86.7202 1.2 87.0269 1.32 87.1869 1.56C87.3469 1.77333 87.3335 2.09333 87.1469 2.52L83.0669 11.84C84.5602 11.92 85.7469 12.4533 86.6269 13.44C87.5335 14.4 87.9869 15.68 87.9869 17.28V28.56C87.9869 29.0667 87.8669 29.44 87.6269 29.68C87.4135 29.8933 87.0535 30 86.5469 30H80.3869C79.8802 30 79.5069 29.8933 79.2669 29.68C79.0535 29.44 78.9469 29.0667 78.9469 28.56V20.76C78.9469 20.3333 78.8402 20 78.6269 19.76C78.4135 19.52 78.0935 19.4 77.6669 19.4H72.3869V28.56C72.3869 29.0667 72.2669 29.44 72.0269 29.68C71.8135 29.8933 71.4535 30 70.9469 30Z" fill="#D84242"/>
<path d="M21.36 71H14.88C14.3733 71 14 70.8933 13.76 70.68C13.5467 70.44 13.44 70.0667 13.44 69.56V49.92H7.56C7.05333 49.92 6.68 49.8133 6.44 49.6C6.22667 49.36 6.12 48.9867 6.12 48.48V43.64C6.12 43.1333 6.22667 42.7733 6.44 42.56C6.68 42.32 7.05333 42.2 7.56 42.2H28.68C29.1867 42.2 29.5467 42.32 29.76 42.56C30 42.7733 30.12 43.1333 30.12 43.64V48.48C30.12 48.9867 30 49.36 29.76 49.6C29.5467 49.8133 29.1867 49.92 28.68 49.92H22.8V69.56C22.8 70.0667 22.68 70.44 22.44 70.68C22.2267 70.8933 21.8667 71 21.36 71ZM17.92 67.4H18.32V46.2H26.52V45.8H9.72V46.2H17.92V67.4ZM58.2147 63.44C58.2147 64.6667 58.028 65.7867 57.6547 66.8C57.308 67.7867 56.668 68.64 55.7347 69.36C54.828 70.0533 53.5614 70.6 51.9347 71C50.3347 71.4 48.2947 71.6 45.8147 71.6C43.3347 71.6 41.2814 71.4 39.6547 71C38.028 70.6 36.748 70.0533 35.8147 69.36C34.908 68.64 34.268 67.7867 33.8947 66.8C33.548 65.7867 33.3747 64.6667 33.3747 63.44V49.8C33.3747 48.5733 33.548 47.4667 33.8947 46.48C34.268 45.4667 34.908 44.6 35.8147 43.88C36.748 43.16 38.028 42.6 39.6547 42.2C41.2814 41.8 43.3347 41.6 45.8147 41.6C48.2947 41.6 50.3347 41.8 51.9347 42.2C53.5614 42.6 54.828 43.16 55.7347 43.88C56.668 44.6 57.308 45.4667 57.6547 46.48C58.028 47.4667 58.2147 48.5733 58.2147 49.8V63.44ZM53.8547 62.52V50.72C53.8547 49.12 53.2814 47.8267 52.1347 46.84C50.988 45.8267 48.8547 45.32 45.7347 45.32C42.6147 45.32 40.4947 45.8267 39.3747 46.84C38.2547 47.8267 37.6947 49.12 37.6947 50.72V62.52C37.6947 64.12 38.2547 65.4267 39.3747 66.44C40.4947 67.4267 42.6147 67.92 45.7347 67.92C48.8547 67.92 50.988 67.4267 52.1347 66.44C53.2814 65.4267 53.8547 64.12 53.8547 62.52ZM38.0947 62.52V50.72C38.0947 49.2267 38.628 48.0267 39.6947 47.12C40.7614 46.1867 42.7747 45.72 45.7347 45.72C48.6947 45.72 50.7214 46.1867 51.8147 47.12C52.908 48.0267 53.4547 49.2267 53.4547 50.72V62.52C53.4547 64.0133 52.908 65.2267 51.8147 66.16C50.7214 67.0667 48.6947 67.52 45.7347 67.52C42.7747 67.52 40.7614 67.0667 39.6947 66.16C38.628 65.2267 38.0947 64.0133 38.0947 62.52ZM42.4547 62C42.4547 62.5333 42.6547 62.9867 43.0547 63.36C43.4547 63.7067 44.3747 63.88 45.8147 63.88C47.2547 63.88 48.1747 63.7067 48.5747 63.36C48.9747 62.9867 49.1747 62.5333 49.1747 62V51.24C49.1747 50.7333 48.9747 50.3067 48.5747 49.96C48.1747 49.5867 47.2547 49.4 45.8147 49.4C44.3747 49.4 43.4547 49.5867 43.0547 49.96C42.6547 50.3067 42.4547 50.7333 42.4547 51.24V62ZM68.0669 67.4V56.84H78.8269C80.2935 56.84 81.4002 57.1067 82.1469 57.64C82.8935 58.1733 83.2669 59.08 83.2669 60.36V67.4H83.6669V60.36C83.6669 58.9733 83.2669 57.9733 82.4669 57.36C81.6669 56.7467 80.4535 56.44 78.8269 56.44H77.1869L81.7869 45.8H81.3469L76.7469 56.44H68.0669V45.8H67.6669V67.4H68.0669ZM70.9469 71H64.7469C64.2402 71 63.8669 70.8933 63.6269 70.68C63.4135 70.44 63.3069 70.0667 63.3069 69.56V43.64C63.3069 43.1333 63.4135 42.7733 63.6269 42.56C63.8669 42.32 64.2402 42.2 64.7469 42.2H70.9469C71.4535 42.2 71.8135 42.32 72.0269 42.56C72.2669 42.7733 72.3869 43.1333 72.3869 43.64V52.84H73.9869L78.1069 43.52C78.2935 43.04 78.5469 42.7067 78.8669 42.52C79.1869 42.3067 79.6002 42.2 80.1069 42.2H86.2669C86.7202 42.2 87.0269 42.32 87.1869 42.56C87.3469 42.7733 87.3335 43.0933 87.1469 43.52L83.0669 52.84C84.5602 52.92 85.7469 53.4533 86.6269 54.44C87.5335 55.4 87.9869 56.68 87.9869 58.28V69.56C87.9869 70.0667 87.8669 70.44 87.6269 70.68C87.4135 70.8933 87.0535 71 86.5469 71H80.3869C79.8802 71 79.5069 70.8933 79.2669 70.68C79.0535 70.44 78.9469 70.0667 78.9469 69.56V61.76C78.9469 61.3333 78.8402 61 78.6269 60.76C78.4135 60.52 78.0935 60.4 77.6669 60.4H72.3869V69.56C72.3869 70.0667 72.2669 70.44 72.0269 70.68C71.8135 70.8933 71.4535 71 70.9469 71Z" fill="white"/>
</svg>
